<svg width="43" height="42" xmlns="http://www.w3.org/2000/svg" xmlns:xlink="http://www.w3.org/1999/xlink" xml:space="preserve" overflow="hidden"><g transform="translate(-334 -152)"><path d="M31.5875 5.6875C31.5875 7.6205 30.0205 9.1875 28.0875 9.1875 26.1545 9.1875 24.5875 7.6205 24.5875 5.6875 24.5875 3.7545 26.1545 2.1875 28.0875 2.1875 30.0205 2.1875 31.5875 3.7545 31.5875 5.6875Z" fill="#FFFFFF" transform="matrix(1.02381 0 0 1 334 152)"/><path d="M36.575 10.5C35.7 10.0625 34.65 10.3688 34.2125 11.2438L32.6812 14.1312 25.9438 9.8875C25.6812 9.7125 25.375 9.625 25.025 9.625L17.5875 9.625C16.9312 9.625 16.3625 9.975 16.0562 10.5437L13.2125 15.7937C12.7312 16.625 13.0813 17.7188 13.9125 18.1562 14.175 18.2875 14.4812 18.375 14.7438 18.375 15.3562 18.375 15.9688 18.025 16.275 17.4563L18.6375 13.125 21.2188 13.125 13.475 27.5625 6.2125 27.5625C5.25 27.5625 4.4625 28.35 4.4625 29.3125 4.4625 30.275 5.25 31.0625 6.2125 31.0625L14.525 31.0625C15.1813 31.0625 15.75 30.7125 16.0562 30.1438L19.1187 24.5 24.15 29.1812 23.7563 37.975C23.6687 38.9375 24.4125 39.7687 25.375 39.8125 25.4187 39.8125 25.4187 39.8125 25.4625 39.8125 26.3813 39.8125 27.1687 39.0688 27.2125 38.15L27.65 28.525C27.6938 28 27.475 27.5188 27.0813 27.1687L22.8375 23.2312 27.3 14.9187 32.375 18.1125C32.7687 18.375 33.2938 18.4625 33.775 18.3313 34.2563 18.2 34.65 17.8938 34.8687 17.4563L37.275 12.8625C37.7563 12.0312 37.45 10.9812 36.575 10.5Z" fill="#FFFFFF" transform="matrix(1.02381 0 0 1 334 152)"/></g></svg>