<svg width="38" height="38" xmlns="http://www.w3.org/2000/svg" xmlns:xlink="http://www.w3.org/1999/xlink" xml:space="preserve" overflow="hidden"><g transform="translate(-103 -85)"><path d="M105.771 109.146 135.363 109.146 131.848 105.631C131.401 105.151 131.428 104.4 131.908 103.952 132.364 103.528 133.071 103.528 133.527 103.952L139.068 109.494C139.531 109.958 139.531 110.709 139.068 111.173L133.527 116.714C133.063 117.177 132.312 117.177 131.848 116.714 131.385 116.251 131.385 115.499 131.848 115.036L135.363 111.521 105.771 111.521C105.115 111.521 104.583 110.989 104.583 110.333 104.583 109.677 105.115 109.146 105.771 109.146Z" fill="#FFFFFF"/><path d="M138.229 96.4792 108.637 96.4792 112.152 92.9642C112.631 92.5171 112.658 91.7657 112.211 91.2858 111.764 90.806 111.012 90.7795 110.533 91.2266 110.512 91.2456 110.492 91.2654 110.473 91.2858L104.932 96.8275C104.469 97.2911 104.469 98.0422 104.932 98.5058L110.473 104.048C110.937 104.511 111.688 104.511 112.152 104.048 112.615 103.584 112.615 102.833 112.152 102.369L108.637 98.8542 138.229 98.8542C138.885 98.8542 139.417 98.3225 139.417 97.6667 139.417 97.0108 138.885 96.4792 138.229 96.4792Z" fill="#FFFFFF"/></g></svg>