<svg width="49" height="49" xmlns="http://www.w3.org/2000/svg" xmlns:xlink="http://www.w3.org/1999/xlink" xml:space="preserve" overflow="hidden"><g transform="translate(-333 -71)"><path d="M357.5 93.4583C354.948 93.4583 352.906 91.4167 352.906 88.8646 352.906 86.3125 354.948 84.2708 357.5 84.2708 360.052 84.2708 362.094 86.3125 362.094 88.8646 362.094 91.4167 360.052 93.4583 357.5 93.4583ZM357.5 78.1458C353.978 78.1458 350.66 79.8812 348.67 82.8417 346.679 85.751 346.271 89.4771 347.547 92.7948L352.396 103.514 356.581 112.293C356.734 112.65 357.092 112.854 357.5 112.854 357.908 112.854 358.266 112.65 358.419 112.293L362.604 103.514 367.453 92.7948C368.729 89.4771 368.321 85.751 366.33 82.8417 364.34 79.8812 361.022 78.1458 357.5 78.1458Z" fill="#FFFFFF"/></g></svg>