<svg width="45" height="45" xmlns="http://www.w3.org/2000/svg" xmlns:xlink="http://www.w3.org/1999/xlink" xml:space="preserve" overflow="hidden"><g transform="translate(-381 -217)"><path d="M411.938 254.5 395.062 254.5 395.062 224.5 411.938 224.5 411.938 254.5ZM401.625 220.75 405.375 220.75C405.891 220.75 406.312 221.172 406.312 221.688 406.312 222.203 405.891 222.625 405.375 222.625L401.625 222.625C401.109 222.625 400.688 222.203 400.688 221.688 400.688 221.172 401.109 220.75 401.625 220.75ZM413.812 218.875 393.188 218.875C392.672 218.875 392.25 219.297 392.25 219.812L392.25 259.188C392.25 259.703 392.672 260.125 393.188 260.125L413.812 260.125C414.328 260.125 414.75 259.703 414.75 259.188L414.75 219.812C414.75 219.297 414.328 218.875 413.812 218.875Z" fill="#FFFFFF"/></g></svg>